<svg width="256" height="256" viewBox="0 0 256 256" fill="none" xmlns="http://www.w3.org/2000/svg">
  <rect width="256" height="256" rx="64" fill="#173F2C"/>
  <path d="M171.5 63C194.8 63 215.2 73.6 226.7 91.7C210.9 79.6 188.9 76.4 168.8 84.8C145.6 94.5 128.6 116.8 126.1 140.7C123.8 162.7 133.5 183 151.5 194.5C121.1 197.1 91.6 182.7 76.2 156.3C57.3 123.8 68.3 82.2 100.8 63.3C122.8 50.5 149.5 50.8 171.5 63Z" fill="#FFF4DE"/>
  <path d="M110 92.8C119.9 81.3 133.1 73.6 147.3 71.5C129.5 79.6 115.8 95.7 111.7 114.9C107 136.9 113.8 159.8 128.3 174.3C141.6 187.6 160.3 193.9 177.9 190.9C161.8 208.3 138.2 218.3 113 216.2C81.8 213.6 55.9 191.5 48.4 161.2C43.3 140.6 48.6 118.4 62.7 102.4C62.8 114.6 67 126.9 74.9 137.3C84 149.1 97.1 156.2 110.6 157.1C99.5 144.4 94.6 126.7 97.8 109.3C99 103.2 101 97.6 103.9 92.5L110 92.8Z" fill="#173F2C"/>
  <path d="M80.7 89.8C83.5 82.8 88 76.5 93.9 71.6C94.1 78.7 92.4 85.8 88.8 92.3C85.2 98.8 80 104 73.9 107.6C74.5 101.6 76.7 95.5 80.7 89.8Z" fill="#FFF4DE"/>
  <path d="M154.8 129.5C169.6 131.7 182.9 140.3 190.9 152.9C177.9 144 161.7 141.1 146.8 145.4C129.8 150.4 116.3 163.7 110.6 180C105.3 195.1 107.5 210.6 115.7 223.5C92.5 215.7 74.2 196.1 69.2 171C63.1 140 83.2 109.7 114.2 103.7C135.2 99.6 156 105.6 170.6 118.3C161.2 116.8 151.2 118.4 142 123.1C131.7 128.5 124 137.6 119.8 147.7C133.3 142.3 148.7 141.8 162.8 147C167.7 148.9 172.1 151.2 176.2 154.3L154.8 129.5Z" fill="#FFF4DE"/>
</svg>
