<svg width="720" height="180" viewBox="0 0 720 180" fill="none" xmlns="http://www.w3.org/2000/svg">
  <rect x="8" y="8" width="164" height="164" rx="40" fill="#173F2C"/>
  <path d="M116.805 41C131.776 41 144.888 47.8187 152.278 59.4643C142.151 51.6786 128.059 49.6214 115.172 55.0214C100.293 61.2464 89.3907 75.5607 87.7864 90.9107C86.3093 105.039 92.5379 118.082 104.091 125.472C84.5914 127.14 65.6643 117.911 55.7936 100.968C43.6807 80.1371 50.7407 53.4507 71.5707 41.3379C85.6671 33.1379 102.776 33.3307 116.805 41Z" fill="#FFF4DE"/>
  <path d="M77.5264 60.1071C83.8807 52.7214 92.3536 47.7714 101.468 46.4214C90.0507 51.6286 81.2579 61.95 78.6214 74.2714C75.6 88.4 79.9714 103.111 89.2786 112.418C97.815 120.954 109.821 124.997 121.114 123.068C110.793 134.229 95.6357 140.647 79.45 139.297C59.3893 137.628 42.7357 123.436 37.9143 103.954C34.6357 90.7179 38.0429 76.4607 47.0929 66.1714C47.1571 74.0007 49.8571 81.8943 54.9357 88.5714C60.7571 96.1436 69.1643 100.711 77.8286 101.289C70.7 93.1286 67.55 81.765 69.6071 70.605C70.3786 66.6907 71.6643 63.0907 73.5286 59.8114L77.5264 60.1071Z" fill="#173F2C"/>
  <path d="M58.6321 58.1785C60.4321 53.6785 63.325 49.616 67.1143 46.466C67.2429 51.0303 66.15 55.5946 63.8357 59.766C61.5214 63.9375 58.1786 67.2803 54.2607 69.5946C54.6464 65.7232 56.0607 61.7875 58.6321 58.1785Z" fill="#FFF4DE"/>
  <path d="M105.436 83.0732C114.936 84.4875 123.471 90.0518 128.614 98.1375C120.271 92.4446 109.886 90.5803 100.321 93.3446C89.4182 96.559 80.7539 105.095 77.0896 115.577C73.6825 125.287 75.0968 135.223 80.3682 143.502C65.4646 138.487 53.7103 125.93 50.496 109.809C46.5746 89.8803 59.4539 70.3982 79.3825 66.5411C92.8753 63.9053 106.239 67.7625 115.611 75.9125C109.564 74.9482 103.164 75.9768 97.2789 78.9982C90.666 82.4696 85.7432 88.291 83.0432 94.7732C91.7075 91.3018 101.611 90.9803 110.661 94.3232C113.811 95.5446 116.639 97.0232 119.275 99.016L105.436 83.0732Z" fill="#FFF4DE"/>
  <path d="M216 122V57.58H242.11C256.26 57.58 265.94 66.16 265.94 79.32C265.94 92.39 256.26 101.24 242.11 101.24H230.97V122H216ZM230.97 88.8H240.64C247.63 88.8 251.14 85.47 251.14 79.32C251.14 73.17 247.63 70.02 240.64 70.02H230.97V88.8Z" fill="#173F2C"/>
  <path d="M306.134 123.08C290.124 123.08 278.264 111.76 278.264 95.57C278.264 79.38 290.124 68.15 306.134 68.15C322.144 68.15 334.004 79.38 334.004 95.57C334.004 111.76 322.144 123.08 306.134 123.08ZM306.134 111.76C314.164 111.76 320.324 105.51 320.324 95.57C320.324 85.63 314.164 79.47 306.134 79.47C298.104 79.47 291.944 85.63 291.944 95.57C291.944 105.51 298.104 111.76 306.134 111.76Z" fill="#173F2C"/>
  <path d="M347.446 122V69.23H360.226V75.71C363.196 70.91 368.806 68.15 376.296 68.15C388.526 68.15 395.966 75.8 395.966 88.89V122H383.186V91.06C383.186 83.75 379.406 79.74 372.956 79.74C365.646 79.74 360.226 84.45 360.226 92.48V122H347.446Z" fill="#173F2C"/>
  <path d="M435.687 123.08C419.497 123.08 407.817 111.85 407.817 95.57C407.817 79.38 419.407 68.15 435.327 68.15C449.747 68.15 460.977 77.92 460.977 93.93C460.977 95.82 460.797 97.53 460.527 99.15H420.327C421.767 107.09 427.377 112.03 435.777 112.03C442.677 112.03 447.207 109.06 449.367 104.11H460.797C457.557 115.16 447.837 123.08 435.687 123.08ZM420.597 89.7H448.287C447.117 82.39 441.687 78.93 435.147 78.93C428.697 78.93 423.177 82.57 420.597 89.7Z" fill="#173F2C"/>
  <path d="M472.413 122V57.58H485.193V80.19C488.253 72.97 494.503 68.15 502.803 68.15C517.133 68.15 527.163 79.11 527.163 95.57C527.163 111.94 517.133 123.08 502.803 123.08C494.503 123.08 488.253 118.35 485.193 111.04V122H472.413ZM499.583 111.49C507.793 111.49 514.113 105.15 514.113 95.57C514.113 86.08 507.793 79.74 499.583 79.74C491.463 79.74 485.103 86.08 485.103 95.57C485.103 105.15 491.463 111.49 499.583 111.49Z" fill="#173F2C"/>
  <path d="M565.279 123.08C549.269 123.08 537.409 111.76 537.409 95.57C537.409 79.38 549.269 68.15 565.279 68.15C581.289 68.15 593.149 79.38 593.149 95.57C593.149 111.76 581.289 123.08 565.279 123.08ZM565.279 111.76C573.309 111.76 579.469 105.51 579.469 95.57C579.469 85.63 573.309 79.47 565.279 79.47C557.249 79.47 551.089 85.63 551.089 95.57C551.089 105.51 557.249 111.76 565.279 111.76Z" fill="#173F2C"/>
  <path d="M603.84 122V69.23H616.62V122H603.84ZM603.57 63.02V50.96H616.98V63.02H603.57Z" fill="#173F2C"/>
  <path d="M654.837 123.08C642.607 123.08 634.757 116.69 634.757 106.57C634.757 97.12 642.247 91.6 654.927 89.88L669.537 87.81V86.19C669.537 80.4 665.487 77.61 658.767 77.61C652.157 77.61 647.807 80.58 647.177 85.63H635.387C636.467 74.85 645.557 68.15 659.127 68.15C673.727 68.15 682.227 75.53 682.227 87.9V122H669.717V114.24C666.567 119.47 660.227 123.08 654.837 123.08ZM657.987 113.05C664.867 113.05 669.537 108.25 669.537 101.53V97.48L658.857 99.06C651.727 100.14 648.527 102.3 648.527 106.12C648.527 110.08 651.857 113.05 657.987 113.05Z" fill="#173F2C"/>
</svg>
