<svg width="1280" height="720" viewBox="0 0 1280 720" fill="none" xmlns="http://www.w3.org/2000/svg">
  <rect width="1280" height="720" rx="48" fill="#082B38"/>
  <rect x="44" y="44" width="1192" height="632" rx="36" fill="url(#bg)"/>
  <rect x="92" y="94" width="316" height="532" rx="28" fill="#0F4252" stroke="#7CD4C7" stroke-opacity="0.2"/>
  <text x="128" y="156" fill="#E9FFF8" font-family="Manrope, Arial, sans-serif" font-size="34" font-weight="700">PayChain</text>
  <text x="128" y="194" fill="#9EC9C0" font-family="Manrope, Arial, sans-serif" font-size="18">Admin portal</text>
  <rect x="128" y="234" width="244" height="76" rx="20" fill="#154B5D"/>
  <circle cx="168" cy="272" r="10" fill="#67E8A6"/>
  <text x="194" y="280" fill="#F4FFF9" font-family="Manrope, Arial, sans-serif" font-size="24" font-weight="700">Wallets</text>
  <rect x="128" y="330" width="244" height="76" rx="20" fill="#154B5D"/>
  <circle cx="168" cy="368" r="10" fill="#87D7FF"/>
  <text x="194" y="376" fill="#F4FFF9" font-family="Manrope, Arial, sans-serif" font-size="24" font-weight="700">Reserve</text>
  <rect x="128" y="426" width="244" height="76" rx="20" fill="#154B5D"/>
  <circle cx="168" cy="464" r="10" fill="#F6C15F"/>
  <text x="194" y="472" fill="#F4FFF9" font-family="Manrope, Arial, sans-serif" font-size="24" font-weight="700">Treasury</text>
  <rect x="128" y="522" width="244" height="76" rx="20" fill="#154B5D"/>
  <circle cx="168" cy="560" r="10" fill="#FD8E8E"/>
  <text x="194" y="568" fill="#F4FFF9" font-family="Manrope, Arial, sans-serif" font-size="24" font-weight="700">Compliance</text>

  <rect x="456" y="94" width="732" height="244" rx="28" fill="#F4FBF7"/>
  <text x="500" y="152" fill="#163743" font-family="Manrope, Arial, sans-serif" font-size="22" font-weight="700">Operational readiness</text>
  <rect x="500" y="184" width="148" height="118" rx="24" fill="#DDF7E8"/>
  <text x="524" y="220" fill="#245665" font-family="Manrope, Arial, sans-serif" font-size="18">API</text>
  <text x="524" y="266" fill="#163743" font-family="Manrope, Arial, sans-serif" font-size="28" font-weight="800">Online</text>
  <rect x="668" y="184" width="148" height="118" rx="24" fill="#E2F1FF"/>
  <text x="692" y="220" fill="#245665" font-family="Manrope, Arial, sans-serif" font-size="18">Database</text>
  <text x="692" y="266" fill="#163743" font-family="Manrope, Arial, sans-serif" font-size="28" font-weight="800">Connected</text>
  <rect x="836" y="184" width="148" height="118" rx="24" fill="#FFF3D8"/>
  <text x="860" y="220" fill="#245665" font-family="Manrope, Arial, sans-serif" font-size="18">Blockchain</text>
  <text x="860" y="266" fill="#163743" font-family="Manrope, Arial, sans-serif" font-size="28" font-weight="800">Healthy</text>
  <rect x="1004" y="184" width="148" height="118" rx="24" fill="#FDE7E7"/>
  <text x="1028" y="220" fill="#245665" font-family="Manrope, Arial, sans-serif" font-size="18">Mainnet</text>
  <text x="1028" y="266" fill="#163743" font-family="Manrope, Arial, sans-serif" font-size="28" font-weight="800">Gated</text>

  <rect x="456" y="370" width="352" height="256" rx="28" fill="#F4FBF7"/>
  <text x="500" y="426" fill="#163743" font-family="Manrope, Arial, sans-serif" font-size="22" font-weight="700">Financial controls</text>
  <path d="M520 494H744" stroke="#1E5D58" stroke-width="16" stroke-linecap="round"/>
  <path d="M520 550H696" stroke="#1E5D58" stroke-width="16" stroke-linecap="round"/>
  <circle cx="744" cy="494" r="18" fill="#4BC38F"/>
  <circle cx="696" cy="550" r="18" fill="#4BC38F"/>
  <text x="520" y="470" fill="#56757F" font-family="Manrope, Arial, sans-serif" font-size="18">Reserve ratios</text>
  <text x="520" y="526" fill="#56757F" font-family="Manrope, Arial, sans-serif" font-size="18">Treasury approvals</text>
  <text x="520" y="588" fill="#56757F" font-family="Manrope, Arial, sans-serif" font-size="18">Reconciliation queue</text>
  <rect x="520" y="602" width="208" height="8" rx="4" fill="#98B8C0"/>

  <rect x="836" y="370" width="352" height="256" rx="28" fill="#F4FBF7"/>
  <text x="880" y="426" fill="#163743" font-family="Manrope, Arial, sans-serif" font-size="22" font-weight="700">Risk and audit</text>
  <rect x="880" y="460" width="264" height="44" rx="14" fill="#E2F1FF"/>
  <text x="902" y="488" fill="#163743" font-family="Manrope, Arial, sans-serif" font-size="18" font-weight="700">KYC / AML alerts</text>
  <rect x="880" y="522" width="264" height="44" rx="14" fill="#FFF3D8"/>
  <text x="902" y="550" fill="#163743" font-family="Manrope, Arial, sans-serif" font-size="18" font-weight="700">Feature flags and gates</text>
  <rect x="880" y="584" width="264" height="44" rx="14" fill="#FDE7E7"/>
  <text x="902" y="612" fill="#163743" font-family="Manrope, Arial, sans-serif" font-size="18" font-weight="700">Audit logs</text>

  <defs>
    <linearGradient id="bg" x1="92" y1="94" x2="1188" y2="626" gradientUnits="userSpaceOnUse">
      <stop stop-color="#0C4A54"/>
      <stop offset="1" stop-color="#0B3140"/>
    </linearGradient>
  </defs>
</svg>
